<svg width="512" height="512" viewBox="0 0 512 512" fill="none" xmlns="http://www.w3.org/2000/svg">
<path d="M385.865 169.035H126.134C124.761 169.034 123.4 169.305 122.131 169.83C120.862 170.356 119.709 171.127 118.737 172.098C117.766 173.07 116.995 174.223 116.469 175.492C115.944 176.761 115.673 178.122 115.674 179.495V397.301C115.673 398.675 115.944 400.035 116.469 401.304C116.995 402.574 117.766 403.727 118.737 404.698C119.709 405.67 120.862 406.44 122.131 406.966C123.4 407.492 124.761 407.762 126.134 407.762H172.438V481.163C172.438 498.193 186.244 512 203.276 512C220.306 512 234.113 498.195 234.113 481.163V407.762H277.245V481.163C277.245 498.193 291.05 512 308.082 512C325.112 512 338.919 498.195 338.919 481.163V407.762H385.867C387.24 407.762 388.601 407.492 389.87 406.966C391.139 406.44 392.293 405.67 393.264 404.698C394.235 403.727 395.006 402.574 395.532 401.304C396.057 400.035 396.328 398.675 396.328 397.301V179.495C396.327 176.721 395.225 174.06 393.263 172.098C391.301 170.137 388.64 169.035 385.865 169.035ZM71.7007 168.984C54.6703 168.984 40.8633 182.79 40.8633 199.821V325.071C40.8633 342.101 54.6691 355.908 71.7007 355.908C88.7312 355.908 102.538 342.103 102.538 325.071V199.821C102.537 182.791 88.7312 168.984 71.7007 168.984ZM440.299 168.984C423.269 168.984 409.462 182.79 409.462 199.821V325.071C409.462 342.101 423.267 355.908 440.299 355.908C457.33 355.908 471.137 342.103 471.137 325.071V199.821C471.137 182.791 457.331 168.984 440.299 168.984ZM128.236 153.759H383.15C389.8 153.759 394.76 147.633 393.394 141.124C384.962 100.936 359.375 67.0688 324.656 47.504L346.448 8.18478C347.157 6.9062 347.328 5.39855 346.925 3.9935C346.522 2.58844 345.577 1.40107 344.299 0.692598C343.02 -0.015877 341.512 -0.187423 340.107 0.215698C338.702 0.61882 337.515 1.56359 336.807 2.84216L314.85 42.4576C296.866 34.1121 276.824 29.4511 255.693 29.4511C234.561 29.4511 214.519 34.1121 196.535 42.4576L174.579 2.84092C173.863 1.57555 172.677 0.644015 171.278 0.249145C169.879 -0.145724 168.381 0.0280499 167.11 0.732631C165.838 1.43721 164.897 2.61554 164.49 4.01105C164.083 5.40656 164.244 6.90623 164.938 8.18354L186.73 47.5028C152.011 67.0688 126.424 100.935 117.992 141.124C116.625 147.633 121.585 153.759 128.236 153.759ZM331.756 95.1612C331.756 101.707 326.45 107.015 319.902 107.015C313.356 107.015 308.049 101.708 308.049 95.1612C308.049 88.6152 313.355 83.3073 319.902 83.3073C326.45 83.3073 331.756 88.6152 331.756 95.1612ZM191.481 83.3073C198.027 83.3073 203.335 88.614 203.335 95.1612C203.335 101.707 198.029 107.015 191.481 107.015C184.935 107.015 179.628 101.708 179.628 95.1612C179.628 88.6152 184.934 83.3073 191.481 83.3073Z" fill="#AAC148"/>
</svg>
