<svg width="512" height="512" viewBox="0 0 512 512" fill="none" xmlns="http://www.w3.org/2000/svg">
<g clip-path="url(#clip0_1036_118)">
<path d="M351.977 0C324.681 1.888 292.777 19.36 274.185 42.112C257.225 62.752 243.273 93.408 248.713 123.2C278.537 124.128 309.353 106.24 327.209 83.104C343.913 61.568 356.553 31.104 351.977 0Z" fill="white"/>
<path d="M459.846 171.774C433.639 138.911 396.807 119.839 362.024 119.839C316.104 119.839 296.68 141.823 264.777 141.823C231.881 141.823 206.889 119.903 167.178 119.903C128.17 119.903 86.6349 143.743 60.2992 184.51C23.2756 241.917 29.6115 349.852 89.6108 441.787C111.083 474.683 139.754 511.674 177.258 511.994C210.633 512.314 220.041 490.587 265.257 490.363C310.472 490.107 319.048 512.282 352.36 511.93C389.895 511.642 420.135 470.651 441.607 437.755C456.999 414.171 462.726 402.3 474.662 375.676C387.847 342.62 373.927 219.166 459.846 171.774Z" fill="white"/>
</g>
<defs>
<clipPath id="clip0_1036_118">
<rect width="511.997" height="511.997" fill="white"/>
</clipPath>
</defs>
</svg>
