<svg width="512" height="512" viewBox="0 0 512 512" fill="none" xmlns="http://www.w3.org/2000/svg">
<g clip-path="url(#clip0_1033_2)">
<path d="M351.979 0C324.683 1.888 292.779 19.36 274.187 42.112C257.227 62.752 243.275 93.408 248.715 123.2C278.539 124.128 309.355 106.24 327.211 83.104C343.915 61.568 356.555 31.104 351.979 0Z" fill="black"/>
<path d="M459.849 171.775C433.642 138.911 396.81 119.839 362.026 119.839C316.106 119.839 296.682 141.823 264.779 141.823C231.883 141.823 206.891 119.903 167.179 119.903C128.171 119.903 86.6357 143.743 60.2998 184.51C23.276 241.918 29.612 349.854 89.6116 441.789C111.084 474.685 139.755 511.677 177.259 511.997C210.635 512.317 220.043 490.589 265.259 490.365C310.474 490.109 319.05 512.285 352.362 511.933C389.898 511.645 420.138 470.653 441.61 437.757C457.001 414.173 462.729 402.301 474.665 375.677C387.85 342.622 373.93 219.166 459.849 171.775Z" fill="black"/>
<g clip-path="url(#clip1_1033_2)">
<path d="M351.977 0C324.681 1.888 292.777 19.36 274.185 42.112C257.225 62.752 243.273 93.408 248.713 123.2C278.537 124.128 309.353 106.24 327.209 83.104C343.913 61.568 356.553 31.104 351.977 0Z" fill="black"/>
<path d="M459.846 171.774C433.639 138.911 396.807 119.839 362.024 119.839C316.104 119.839 296.68 141.823 264.777 141.823C231.881 141.823 206.889 119.903 167.178 119.903C128.17 119.903 86.6349 143.743 60.2992 184.51C23.2756 241.917 29.6115 349.852 89.6108 441.787C111.083 474.683 139.754 511.674 177.258 511.994C210.633 512.314 220.041 490.587 265.257 490.363C310.472 490.107 319.048 512.282 352.36 511.93C389.895 511.642 420.135 470.651 441.607 437.755C456.999 414.171 462.726 402.3 474.662 375.676C387.847 342.62 373.927 219.166 459.846 171.774Z" fill="black"/>
</g>
</g>
<defs>
<clipPath id="clip0_1033_2">
<rect width="512" height="512" fill="white"/>
</clipPath>
<clipPath id="clip1_1033_2">
<rect width="511.997" height="511.997" fill="white"/>
</clipPath>
</defs>
</svg>
