<svg width="512" height="512" viewBox="0 0 512 512" fill="none" xmlns="http://www.w3.org/2000/svg">
<g clip-path="url(#clip0_1036_122)">
<path d="M281.916 245.806L34.2772 493.444C22.4392 482.246 16.0403 466.888 16.0403 450.251V61.8365C16.0403 44.8794 22.7592 29.522 34.9171 18.0039L281.916 245.806Z" fill="#2196F3"/>
<path d="M495.96 256.044C495.96 278.44 483.802 298.276 463.645 309.475L393.257 348.508L305.912 267.882L281.916 245.805L374.38 153.341L463.645 202.613C483.802 213.811 495.96 233.647 495.96 256.044Z" fill="#FFC107"/>
<path d="M281.916 245.805L34.9171 18.0035C38.1166 14.804 42.2759 11.9245 46.4352 9.36491C66.5918 -2.79304 90.9077 -3.11299 111.704 8.40507L374.38 153.341L281.916 245.805Z" fill="#4CAF50"/>
<path d="M393.257 348.507L111.704 503.681C101.786 509.44 90.5878 512 79.7096 512C68.1915 512 56.6735 509.12 46.4352 502.722C41.992 500.177 37.9041 497.057 34.2772 493.443L281.916 245.805L305.912 267.881L393.257 348.507Z" fill="#F44336"/>
</g>
<defs>
<clipPath id="clip0_1036_122">
<rect width="512" height="512" fill="white"/>
</clipPath>
</defs>
</svg>
