<svg width="512" height="512" viewBox="0 0 512 512" fill="none" xmlns="http://www.w3.org/2000/svg">
<g clip-path="url(#clip0_1033_13)">
<path d="M56.1431 324.122L38.8728 330.838C12.9672 341.872 -0.465366 353.386 0.0143674 363.46C1.45357 378.332 18.2442 389.366 48.9471 397.521C88.765 408.075 129.063 410.474 170.799 404.237V362.501L137.698 374.974C103.157 386.967 85.4069 376.893 85.4069 376.893C80.1298 373.535 77.7311 365.379 92.1231 360.102L110.353 353.386L170.799 331.798V283.345L155.448 288.622L56.1431 324.122ZM308.483 155.736V279.987C334.388 292.46 357.416 293.419 374.686 280.466C392.436 267.993 402.031 246.405 402.031 213.783C402.031 179.722 395.314 153.817 380.443 136.546C367.01 118.316 343.024 102.965 307.523 90.9717C263.388 76.5797 225.969 64.1066 196.225 57.8701V429.663L276.341 454.13V145.182C275.861 126.472 308.483 127.911 308.483 155.736Z" fill="#3578CE"/>
<path d="M511.89 347.629C511.41 334.676 496.058 324.602 468.714 315.487C438.011 305.412 411.625 300.615 382.841 301.574C356.456 302.054 324.794 310.689 296.49 319.804V367.298L374.206 339.953C374.206 339.953 397.713 331.318 417.862 336.595C433.213 340.433 432.254 349.068 416.903 354.345L399.152 361.541L296.49 398.48V446.933L344.463 429.663L459.599 388.886L473.031 382.649C500.856 372.575 513.329 361.541 511.89 347.629Z" fill="#3578CE"/>
</g>
<defs>
<clipPath id="clip0_1033_13">
<rect width="512" height="512" fill="white"/>
</clipPath>
</defs>
</svg>
