<svg width="512" height="512" viewBox="0 0 512 512" fill="none" xmlns="http://www.w3.org/2000/svg">
<g clip-path="url(#clip0_1036_95)">
<rect width="512" height="512" rx="256" fill="white"/>
<path d="M330.667 256C360.122 256 384 232.122 384 202.666C384 173.211 360.122 149.333 330.667 149.333C301.212 149.333 277.333 173.211 277.333 202.666C277.333 232.122 301.212 256 330.667 256Z" fill="#303C42"/>
<path d="M184.96 391.253C179.262 394.184 172.811 395.325 166.454 394.526C160.096 393.726 154.128 391.024 149.333 386.773C147.193 385.049 144.47 384.218 141.731 384.453C138.993 384.688 136.451 385.97 134.635 388.034C132.819 390.097 131.87 392.782 131.985 395.528C132.1 398.274 133.271 400.869 135.253 402.773C141.489 408.279 148.926 412.251 156.97 414.37C165.014 416.489 173.443 416.697 181.582 414.977C189.72 413.257 197.344 409.657 203.844 404.465C210.343 399.273 215.538 392.633 219.013 385.075C222.488 377.517 224.146 369.251 223.856 360.937C223.567 352.624 221.336 344.493 217.343 337.195C213.35 329.898 207.705 323.635 200.86 318.909C194.015 314.182 186.159 311.122 177.92 309.973C176.53 309.764 175.111 309.837 173.749 310.188C172.388 310.54 171.111 311.162 169.996 312.019C168.88 312.875 167.949 313.948 167.258 315.173C166.567 316.397 166.13 317.749 165.973 319.147C165.61 321.947 166.372 324.776 168.091 327.016C169.811 329.255 172.348 330.721 175.147 331.093C181.939 331.997 188.262 335.058 193.185 339.824C198.108 344.59 201.37 350.811 202.493 357.571C203.616 364.331 202.539 371.272 199.421 377.374C196.303 383.476 191.309 388.416 185.173 391.467L184.96 391.253Z" fill="#303C42"/>
<path d="M256 9.66563e-05C189.913 -0.0572945 126.364 25.445 78.65 71.171C30.9358 116.897 2.75366 179.304 5.3036e-05 245.333C-0.065215 246.783 0.165996 248.231 0.679538 249.588C1.19308 250.945 1.97815 252.183 2.98672 253.227C4.52015 254.68 6.45064 255.645 8.53339 256C15.7867 258.347 72.5334 282.88 105.6 298.667C107.411 299.446 109.4 299.719 111.353 299.456C113.307 299.193 115.153 298.404 116.693 297.173C125.005 289.931 134.693 284.441 145.177 281.032C155.661 277.623 166.725 276.365 177.707 277.333C179.52 277.535 181.355 277.269 183.035 276.559C184.716 275.849 186.187 274.72 187.307 273.28L232.32 214.4C233.944 212.268 234.706 209.602 234.453 206.933V202.24C234.581 183.563 240.154 165.329 250.489 149.772C260.824 134.215 275.473 122.011 292.641 114.655C309.808 107.298 328.749 105.11 347.142 108.357C365.535 111.604 382.581 120.146 396.192 132.937C409.802 145.727 419.387 162.209 423.77 180.365C428.153 198.521 427.145 217.561 420.869 235.152C414.594 252.744 403.323 268.122 388.438 279.404C373.552 290.685 355.7 297.38 337.067 298.667C334.882 298.817 332.796 299.637 331.093 301.013L259.627 359.68C258.489 360.624 257.561 361.795 256.9 363.117C256.239 364.439 255.86 365.884 255.787 367.36C254.587 389.132 245.099 409.619 229.27 424.615C213.441 439.611 192.472 447.979 170.667 448C152.011 448.15 133.837 442.089 119.005 430.772C104.174 419.455 93.5285 403.526 88.7467 385.493C88.3607 384.027 87.6663 382.659 86.7098 381.482C85.7533 380.305 84.5568 379.345 83.2001 378.667L42.6667 358.827C40.6451 357.786 38.3436 357.418 36.0982 357.777C33.8527 358.136 31.7808 359.204 30.1848 360.823C28.5888 362.443 27.5523 364.531 27.2264 366.781C26.9005 369.032 27.3024 371.327 28.3734 373.333C49.204 413.727 80.4126 447.847 118.793 472.189C157.174 496.53 201.343 510.214 246.762 511.837C292.182 513.459 337.215 502.961 377.234 481.42C417.254 459.88 450.817 428.073 474.477 389.269C498.137 350.464 511.039 306.061 511.859 260.62C512.68 215.179 501.388 170.338 479.144 130.705C456.9 91.0723 424.506 58.0756 385.289 35.1049C346.073 12.1342 301.449 0.0176548 256 9.66563e-05Z" fill="#303C42"/>
</g>
<defs>
<clipPath id="clip0_1036_95">
<rect width="512" height="512" fill="white"/>
</clipPath>
</defs>
</svg>
