<svg width="512" height="512" viewBox="0 0 512 512" fill="none" xmlns="http://www.w3.org/2000/svg">
<g clip-path="url(#clip0_1036_101)">
<rect width="512" height="512" rx="114" fill="white"/>
<path d="M397 0H281V512H397C460.411 512 512 460.411 512 397V115C512 51.589 460.411 0 397 0ZM396.5 332C363.141 332 336 304.859 336 271.5C336 238.141 363.141 211 396.5 211C429.859 211 457 238.141 457 271.5C457 304.859 429.859 332 396.5 332Z" fill="#D5011D"/>
<path d="M251 512H115C51.589 512 0 460.411 0 397V115C0 51.589 51.589 0 115 0H251V512ZM115 30C68.131 30 30 68.131 30 115V397C30 443.869 68.131 482 115 482H221V30H115Z" fill="#FF0021"/>
<path d="M125.5 211C92.141 211 65 183.859 65 150.5C65 117.141 92.141 90 125.5 90C158.859 90 186 117.141 186 150.5C186 183.859 158.859 211 125.5 211Z" fill="#FF0021"/>
</g>
<defs>
<clipPath id="clip0_1036_101">
<rect width="512" height="512" fill="white"/>
</clipPath>
</defs>
</svg>
