<svg width="512" height="512" viewBox="0 0 512 512" fill="none" xmlns="http://www.w3.org/2000/svg">
<g clip-path="url(#clip0_1036_92)">
<rect width="512" height="512" rx="256" fill="white"/>
<path d="M114.072 43.436C113.813 43.635 113.614 43.8539 113.375 44.0529C114.828 42.5208 116.917 40.8693 118.29 39.9739C158.363 13.9282 204.665 0 256.04 0C304.092 0 349.1 13.2716 387.522 36.3526C390.307 38.004 397.908 43.2172 401.828 47.9527C364.759 7.08348 255.801 94.7912 255.801 94.7912C218.115 65.741 183.454 45.9431 157.647 38.8994C136.078 32.9899 121.155 37.9245 114.072 43.436ZM443.812 82.0768C442.677 80.8233 441.444 79.6493 440.31 78.356C430.938 68.069 419.417 65.5818 409.031 66.2584C399.58 69.2231 355.905 84.9619 302.082 135.78C302.082 135.78 362.67 194.696 399.779 254.926C436.847 315.155 459.013 362.491 445.384 428.192C488.313 381.121 512.07 319.687 511.98 255.98C511.98 188.846 486.133 127.741 443.812 82.0768ZM351.328 280.653C327.708 254.267 303.303 228.594 278.146 203.67C271.082 196.646 263.621 189.324 255.781 181.743C255.781 181.743 243.982 193.542 228.621 209.062V209.042C208.963 228.9 183.474 254.806 169.327 269.928C144.137 296.81 71.9689 381.234 67.9099 428.57C67.9099 428.57 51.8526 391.024 87.0909 304.43C110.112 247.822 179.674 162.82 208.724 135.123C208.724 135.123 182.181 105.914 148.872 85.7379L148.673 85.6782C148.673 85.6782 148.295 85.3798 147.698 85.0017C131.681 75.451 114.191 68.0889 97.358 67.1139C80.1667 68.3277 69.2828 80.9028 69.2828 80.9028C24.7167 128.302 -0.0534074 190.94 0.0398129 256C0.0398129 397.371 114.649 512 256.04 512C291.707 512.027 326.984 504.586 359.602 490.155C392.219 475.724 421.454 454.624 445.423 428.212C445.403 428.132 440.031 394.386 405.589 345.976C397.49 334.635 367.903 299.237 351.328 280.653Z" fill="#137616"/>
</g>
<defs>
<clipPath id="clip0_1036_92">
<rect width="512" height="512" fill="white"/>
</clipPath>
</defs>
</svg>
